<?xml version="1.0" encoding="UTF-8"?>
<svg version="1.1" xmlns="http://www.w3.org/2000/svg" width="500" height="500">
  <!-- Add a rectangle for the border -->
  <rect x="0" y="0" width="500" height="500" fill="none" stroke="black" stroke-width="7" rx="7" ry="7"/>
  
  <!-- Your existing SVG content -->
  <g>
    <path d="M0 0 C165 0 330 0 500 0 C500 165 500 330 500 500 C335 500 170 500 0 500 C0 335 0 170 0 0 Z " fill="#EEEBEB" transform="translate(0,0)"/>
    <path d="M0 0 C141.35887809 0 141.35887809 0 157.25 7.3125 C158.24628418 7.76351074 158.24628418 7.76351074 159.26269531 8.22363281 C170.4239124 13.40196237 179.28951034 20.42094434 188 29 C188.80566406 29.78117187 189.61132812 30.56234375 190.44140625 31.3671875 C208.71229324 50.24180815 216.76256111 78.1075676 216.39794922 103.85546875 C215.50169546 131.63443762 206.46770149 155.91600256 187 176 C186.19369141 176.91652344 186.19369141 176.91652344 185.37109375 177.8515625 C172.16504413 192.348429 150.16451058 201.41234368 131 203 C126.29126872 203.13397983 121.58530686 203.11653911 116.875 203.09765625 C115.08835937 203.09614563 115.08835937 203.09614563 113.265625 203.09460449 C108.84374012 203.08939797 104.42186903 203.07543681 100 203.0625 C90.1 203.041875 80.2 203.02125 70 203 C70 240.62 70 278.24 70 317 C46.9 317 23.8 317 0 317 C0 212.39 0 107.78 0 0 Z " fill="#FE5757" transform="translate(250,51)"/>
    <path d="M0 0 C26.4 0 52.8 0 80 0 C80.0441745 30.90516308 80.08107055 61.81029545 80.10213066 92.71548029 C80.10463177 96.37249473 80.10722044 100.0295091 80.10986328 103.68652344 C80.1103879 104.41450247 80.11091252 105.1424815 80.11145304 105.8925205 C80.12013171 117.6462157 80.13588754 129.39989112 80.15430559 141.15357463 C80.17307555 153.23349288 80.18413165 165.31340085 80.18817699 177.39333308 C80.19066374 184.1701933 80.19659369 190.94701249 80.21146011 197.72385788 C80.22512819 204.1144911 80.22920413 210.50506163 80.22621536 216.89570808 C80.22676142 219.22958404 80.23068348 221.56346229 80.23841095 223.89732552 C80.29212979 240.97244 79.55566894 257.63875441 75.875 274.375 C75.66544678 275.33051758 75.45589355 276.28603516 75.23999023 277.27050781 C68.70057375 305.31841952 53.71487103 330.89609318 29.35546875 346.9453125 C13.47726397 356.66817131 -4.61931176 363.03065105 -23 366 C-24.77697266 366.30550781 -24.77697266 366.30550781 -26.58984375 366.6171875 C-52.77611157 370.56342147 -83.42881148 370.10089166 -109 363 C-110.92146774 361.07853226 -110.12016542 358.21281685 -110.12442017 355.65637207 C-110.12082489 354.74359497 -110.11722961 353.83081787 -110.11352539 352.89038086 C-110.11367142 351.93438492 -110.11381744 350.97838898 -110.1139679 349.99342346 C-110.11326835 346.81720755 -110.10547403 343.64104948 -110.09765625 340.46484375 C-110.09579222 338.26908907 -110.09436825 336.07333398 -110.09336853 333.87757874 C-110.08954219 328.08579367 -110.07971091 322.2940335 -110.06866455 316.5022583 C-110.05845293 310.59721209 -110.05387145 304.69216187 -110.04882812 298.78710938 C-110.03808875 287.19139528 -110.02101093 275.59569971 -110 264 C-107.45198726 266.50858192 -105.23159779 268.94139568 -103.1875 271.875 C-96.15521354 281.27459081 -86.43865476 286.80308823 -74.9375 289.375 C-54.65656992 292.23853744 -32.79494478 290.63876771 -15.7890625 278.41015625 C-4.58274351 268.40276658 -2.21408432 252.20322025 -1 238 C-0.861795 234.62688268 -0.84545094 231.25798161 -0.84178162 227.88230896 C-0.83684364 226.90273367 -0.83190566 225.92315839 -0.82681805 224.913899 C-0.81153934 221.65280601 -0.8031087 218.39173256 -0.79467773 215.13061523 C-0.78509163 212.78448822 -0.77508113 210.43836291 -0.76467896 208.09223938 C-0.73770318 201.73761401 -0.71665403 195.38298127 -0.69667697 189.02833056 C-0.67699283 183.05572917 -0.65286055 177.08314642 -0.62875474 171.11056162 C-0.58117362 159.28587848 -0.53788397 147.46118373 -0.49731445 135.63647461 C-0.45791114 124.15436907 -0.41647344 112.67227382 -0.37231445 101.19018555 C-0.36959018 100.48164511 -0.36686591 99.77310467 -0.36405908 99.04309332 C-0.35037881 95.48831994 -0.33665869 91.93354672 -0.32291877 88.37877357 C-0.20910304 58.91920351 -0.10305545 29.45960997 0 0 Z " fill="#8C52FE" transform="translate(143,107)"/>
    <path d="M0 0 C53.44067797 0 53.44067797 0 66.9375 12.84375 C77.34386901 23.78837948 79.53865716 37.69067989 79.31640625 52.28515625 C78.41775853 62.83594612 73.44447085 74.35432724 66 82 C46.20294162 98.27510979 27.27126379 93 0 93 C0 62.31 0 31.62 0 0 Z " fill="#EFEBEB" transform="translate(320,106)"/>
    <path d="M0 0 C3.40121066 2.4539105 5.84172022 4.80024176 8.125 8.3125 C8.60195312 9.03050781 9.07890625 9.74851562 9.5703125 10.48828125 C13.1052506 16.69856867 14.46866581 21.53503865 14.3125 28.5625 C14.31572266 29.29146484 14.31894531 30.02042969 14.32226562 30.77148438 C14.23138439 39.9504895 10.58849734 46.82958417 4.6875 53.6875 C-4.858138 61.90118851 -14.48171415 64.14744123 -26.89501953 63.27685547 C-35.62923446 62.12809651 -41.94112348 56.80651555 -47.37890625 50.24609375 C-54.12597914 40.89773975 -54.8545604 32.16406469 -54 21 C-52.15763618 12.19629948 -46.63328251 5.31147519 -39.3984375 0.140625 C-27.12165273 -7.46446291 -12.52218468 -7.28702937 0 0 Z " fill="#8C52FE" transform="translate(195,21)"/>
  </g>
</svg>

