<?xml version="1.0" encoding="UTF-8"?>
<svg version="1.1" xmlns="http://www.w3.org/2000/svg" width="500" height="500">
<path d="M0 0 C165 0 330 0 500 0 C500 165 500 330 500 500 C335 500 170 500 0 500 C0 335 0 170 0 0 Z " fill="#EEEBEB" transform="translate(0,0)"/>
<path d="M0 0 C64.20898876 0 64.20898876 0 77.86328125 12.73828125 C86.15074872 21.30968764 89.45824205 32.53678477 89.33984375 44.21875 C88.26591047 56.16780071 83.95398561 66.4594148 75.16015625 74.73046875 C70.02347248 78.9847774 64.3020357 81.01470604 58 83 C57.01 83.33 56.02 83.66 55 84 C53.0079697 84.08291953 51.01326287 84.10738177 49.01953125 84.09765625 C47.97128174 84.09515869 46.92303223 84.09266113 45.84301758 84.09008789 C44.51294678 84.08098389 43.18287598 84.07187988 41.8125 84.0625 C37.584375 84.041875 33.35625 84.02125 29 84 C29 99.18 29 114.36 29 130 C19.43 130 9.86 130 0 130 C0 87.1 0 44.2 0 0 Z " fill="#FE5959" transform="translate(219,151)"/>
<path d="M0 0 C8.25 0 16.5 0 25 0 C25.04531834 9.99722632 25.08195489 19.99438358 25.10362434 29.99168968 C25.11402847 34.63463556 25.12812561 39.27750707 25.15087891 43.92041016 C25.17272813 48.40729115 25.18459394 52.89410092 25.18975449 57.38103104 C25.19342867 59.08650456 25.20060301 60.79197452 25.21146011 62.49741745 C25.29896912 76.82279879 25.1263685 92.38135847 14.6875 103.47265625 C4.89465677 112.33608612 -6.24198422 113.47020308 -19 113.25 C-20.22589844 113.24484375 -21.45179688 113.2396875 -22.71484375 113.234375 C-31.68992548 113.15503726 -31.68992548 113.15503726 -34 112 C-34 102.1 -34 92.2 -34 82 C-33.01 82.66 -32.02 83.32 -31 84 C-31 84.66 -31 85.32 -31 86 C-29.824375 86.4640625 -29.824375 86.4640625 -28.625 86.9375 C-26 88 -26 88 -24 89 C-17.65684518 89.59528068 -11.27209236 89.8671299 -5.69313526 86.42318726 C-1.82548781 83.17218499 -1.09396534 77.91561101 -0.60127258 73.11474609 C-0.57532485 71.75117731 -0.56479555 70.38725021 -0.56762695 69.0234375 C-0.5574353 68.27124435 -0.54724365 67.51905121 -0.53674316 66.74406433 C-0.50683964 64.28763157 -0.49738242 61.83159014 -0.48828125 59.375 C-0.47141769 57.66006192 -0.45326521 55.94513608 -0.43388367 54.23022461 C-0.38655942 49.73899153 -0.35663675 45.24780808 -0.33044434 40.75640869 C-0.30054971 36.16432907 -0.25405013 31.57242011 -0.20898438 26.98046875 C-0.12315128 17.98704924 -0.05725415 8.9936469 0 0 Z " fill="#8C53FE" transform="translate(192,188)"/>
<path d="M0 0 C21.81291759 0 21.81291759 0 26.86328125 4.75390625 C27.34152344 5.35074219 27.81976563 5.94757813 28.3125 6.5625 C28.80363281 7.16191406 29.29476563 7.76132813 29.80078125 8.37890625 C33.51788251 13.40365225 32.56132885 20.04730331 32 26 C30.91551331 29.3244078 29.62938001 31.68833674 27 34 C19 38 19 38 0 38 C0 25.46 0 12.92 0 0 Z " fill="#EFEBEB" transform="translate(248,174)"/>
<path d="M0 0 C3.82468048 1.98316766 7.09067421 4.07527477 9 8 C9.57699515 12.26335307 9.49437222 15.82911842 7.8125 19.8125 C2.95245794 25.678068 2.95245794 25.678068 -1.55859375 26.421875 C-6.25259136 26.65116118 -9.87782786 26.68261989 -13.625 23.625 C-17.63030271 19.19808648 -17.39035844 15.75235945 -17.35546875 9.92578125 C-17 7 -17 7 -14.6875 3.875 C-9.39459933 0.1822786 -6.40545461 -0.89785859 0 0 Z " fill="#8D54FE" transform="translate(202,144)"/>
<path d="M0 0 C3.4375 0.875 3.4375 0.875 5.4375 3.875 C5.25 6.9375 5.25 6.9375 4.4375 9.875 C1.4375 11.875 1.4375 11.875 -2.125 11.6875 C-5.5625 10.875 -5.5625 10.875 -7.5625 7.875 C-7.35761638 5.14321837 -6.84613 3.34771667 -5.4375 1 C-3.5625 -0.125 -3.5625 -0.125 0 0 Z " fill="#9A69FC" transform="translate(164.5625,333.125)"/>
<path d="M0 0 C1.8125 1.0625 1.8125 1.0625 3 3 C3.375 6.5625 3.375 6.5625 3 10 C0 12 0 12 -3.5625 11.8125 C-7 11 -7 11 -9 8 C-8.7909311 5.21241468 -8.33997443 3.49296292 -6.75 1.1875 C-4.3314673 -0.45364719 -2.86449123 -0.42967368 0 0 Z " fill="#FD6868" transform="translate(262,333)"/>
<path d="M0 0 C2.64 0 5.28 0 8 0 C8.33333333 1.66666667 8.66666667 3.33333333 9 5 C9.226875 5.886875 9.45375 6.77375 9.6875 7.6875 C9.790625 8.450625 9.89375 9.21375 10 10 C8 12 8 12 6.0546875 12.1953125 C4.03645833 12.13020833 2.01822917 12.06510417 0 12 C0 8.04 0 4.08 0 0 Z " fill="#BA9AF6" transform="translate(182,333)"/>
<path d="M0 0 C6.15234375 -0.09765625 6.15234375 -0.09765625 8 0 C9 1 9 1 9.125 3.4375 C9 6 9 6 8 8 C8.33 8.99 8.66 9.98 9 11 C8.01 10.67 7.02 10.34 6 10 C6 9.34 6 8.68 6 8 C4.68 8 3.36 8 2 8 C2 8.99 2 9.98 2 11 C1.34 11 0.68 11 0 11 C0 7.37 0 3.74 0 0 Z " fill="#FC6C6C" transform="translate(278,334)"/>
<path d="M0 0 C3.375 -0.125 3.375 -0.125 7 0 C9 2 9 2 9.3125 4.5 C9.1578125 5.7375 9.1578125 5.7375 9 7 C6 9 6 9 2 9 C2 9.99 2 10.98 2 12 C1.34 12 0.68 12 0 12 C0 8.04 0 4.08 0 0 Z " fill="#FD6A6A" transform="translate(233,333)"/>
<path d="M0 0 C3 1 3 1 4.16796875 2.99609375 C4.50441406 3.80175781 4.84085937 4.60742188 5.1875 5.4375 C5.53167969 6.24058594 5.87585938 7.04367187 6.23046875 7.87109375 C7 10 7 10 7 12 C6.34 12 5.68 12 5 12 C4.67 11.34 4.34 10.68 4 10 C0.97065509 9.34227572 0.97065509 9.34227572 -2 9 C-2.33 9.99 -2.66 10.98 -3 12 C-3.66 11.67 -4.32 11.34 -5 11 C-3.35 7.37 -1.7 3.74 0 0 Z " fill="#FD6969" transform="translate(323,333)"/>
<path d="M0 0 C2.5625 0.1875 2.5625 0.1875 4.5625 2.1875 C4.00694444 6.74305556 4.00694444 6.74305556 2.5625 8.1875 C0.0625 8.3125 0.0625 8.3125 -2.4375 8.1875 C-3.4375 7.1875 -3.4375 7.1875 -3.5625 4.1875 C-3.39891479 0.26145498 -3.39891479 0.26145498 0 0 Z " fill="#E7E0ED" transform="translate(163.4375,334.8125)"/>
<path d="M0 0 C1 1 1 1 1.125 3.5 C1 6 1 6 0 7 C-2.4375 7.1875 -2.4375 7.1875 -5 7 C-5.66 6.34 -6.32 5.68 -7 5 C-6.75 2.4375 -6.75 2.4375 -6 0 C-3.49749232 -1.25125384 -2.59701335 -0.83774624 0 0 Z " fill="#EFE3E3" transform="translate(262,336)"/>
<path d="M0 0 C1.98 0 3.96 0 6 0 C6.02687279 1.81242052 6.04633715 3.62495233 6.0625 5.4375 C6.07410156 6.44683594 6.08570313 7.45617187 6.09765625 8.49609375 C6 11 6 11 5 12 C3.33382885 12.04063832 1.66611905 12.042721 0 12 C-0.33 11.01 -0.66 10.02 -1 9 C1.475 9.495 1.475 9.495 4 10 C4 7.36 4 4.72 4 2 C2.68 2 1.36 2 0 2 C0 1.34 0 0.68 0 0 Z " fill="#9662FC" transform="translate(139,333)"/>
<path d="M0 0 C3.3 0 6.6 0 10 0 C10 0.66 10 1.32 10 2 C8.68 2 7.36 2 6 2 C6 5.3 6 8.6 6 12 C5.34 12 4.68 12 4 12 C4 8.7 4 5.4 4 2 C2.68 2 1.36 2 0 2 C0 1.34 0 0.68 0 0 Z " fill="#FC6C6C" transform="translate(298,333)"/>
<path d="M0 0 C2.64 0 5.28 0 8 0 C7.34 0.66 6.68 1.32 6 2 C4.68 2 3.36 2 2 2 C2 4.97 2 7.94 2 11 C3.32 11.33 4.64 11.66 6 12 C4.02 12 2.04 12 0 12 C0 8.04 0 4.08 0 0 Z " fill="#9A68FC" transform="translate(182,333)"/>
<path d="M0 0 C0.66 0 1.32 0 2 0 C2 3.3 2 6.6 2 10 C3.65 10 5.3 10 7 10 C7 10.66 7 11.32 7 12 C4.69 12 2.38 12 0 12 C0 8.04 0 4.08 0 0 Z " fill="#FC6C6C" transform="translate(342,333)"/>
<path d="M0 0 C0.99 0.33 1.98 0.66 3 1 C4.17755913 3.94389782 4.03348696 4.89953913 3 8 C1.68 8 0.36 8 -1 8 C-0.67 5.36 -0.34 2.72 0 0 Z " fill="#F7A1A1" transform="translate(323,333)"/>
<path d="M0 0 C2.475 0.495 2.475 0.495 5 1 C4.67 2.32 4.34 3.64 4 5 C2.68 5 1.36 5 0 5 C0 3.35 0 1.7 0 0 Z " fill="#F0DDDD" transform="translate(280,335)"/>
<path d="M0 0 C2.475 0.495 2.475 0.495 5 1 C4.67 2.32 4.34 3.64 4 5 C2.68 5 1.36 5 0 5 C0 3.35 0 1.7 0 0 Z " fill="#F0DEDE" transform="translate(235,335)"/>
<path d="M0 0 C2.3125 -0.25 2.3125 -0.25 5 0 C6.8125 2 6.8125 2 8 4 C7.34 5.32 6.68 6.64 6 8 C5.773125 7.195625 5.54625 6.39125 5.3125 5.5625 C4.879375 4.716875 4.44625 3.87125 4 3 C1.45224694 2.10613836 1.45224694 2.10613836 -1 2 C-0.67 1.34 -0.34 0.68 0 0 Z " fill="#FA7C7C" transform="translate(257,333)"/>
<path d="M0 0 C2.64 0 5.28 0 8 0 C8.33 1.65 8.66 3.3 9 5 C8.608125 4.525625 8.21625 4.05125 7.8125 3.5625 C5.59191626 1.64820367 3.86624291 1.38733012 1 1 C1 2.65 1 4.3 1 6 C0.67 6 0.34 6 0 6 C0 4.02 0 2.04 0 0 Z " fill="#FE5D5D" transform="translate(278,334)"/>
<path d="M0 0 C2.50037734 2.17424117 3.43628586 3.73045798 4 7 C3.34 7 2.68 7 2 7 C1.67 6.34 1.34 5.68 1 5 C-2.02934491 4.34227572 -2.02934491 4.34227572 -5 4 C-5 3.67 -5 3.34 -5 3 C-3.35 3 -1.7 3 0 3 C0 2.01 0 1.02 0 0 Z " fill="#FE6060" transform="translate(326,338)"/>
</svg>
